# xmcd CD database file
#
# Track frame offsets:
#	150
#	24233
#	44615
#	70112
#	89680
#	123155
#	156410
#	188201
#	222972
#	252189
#
# Disc length: 3867 seconds
#
# Revision: 0
# Processed by: cddbd v1.5.1PL2 Copyright (c) Steve Scherf et al.
# Submitted via: CDex 1.51
#
DISCID=8a0f190a
DTITLE=Jessica Williams - Blue Tuesday
DYEAR=2001
DGENRE=Jazz
TTITLE0=Toshiko
TTITLE1=Still Life
TTITLE2=The Sheikh
TTITLE3=Blues 2K
TTITLE4=Spoken Softly
TTITLE5=What's Next
TTITLE6=Blue Tuesday
TTITLE7=Simple Things
TTITLE8=Clear Blue Lou
TTITLE9=I Remember Bill
EXTD=YEAR: 2001
EXTT0=
EXTT1=
EXTT2=
EXTT3=
EXTT4=
EXTT5=
EXTT6=
EXTT7=
EXTT8=
EXTT9=
PLAYORDER=
